<svg id="Layer_1" data-name="Layer 1" xmlns="http://www.w3.org/2000/svg" viewBox="0 0 2048 2048"><defs><style>.cls-1{opacity:0.16;}.cls-2{opacity:0.24;}.cls-3{fill:#fff;}</style></defs><circle cx="1024" cy="1025" r="871"/><circle class="cls-1" cx="1024" cy="1025" r="779"/><path class="cls-2" d="M1262.25,733.75l-633,.5v-180h756Z"/><path class="cls-2" d="M808.75,1567.75l-179.5-72.5q-.25-343.76-.5-687.5h180Z"/><path class="cls-2" d="M808.25,1387.75l453.5,4.5,118.5,175.5h-572Z"/><path class="cls-2" d="M808.25,986.75h344v128h-344Z"/><path class="cls-3" d="M1289,707l-633,.5v-180h756Z"/><path class="cls-3" d="M835.5,1541,656,1468.5q-.25-343.76-.5-687.5h180Z"/><path class="cls-3" d="M835,1361l453.5,4.5L1407,1541H835Z"/><path class="cls-3" d="M835,960h344v128H835Z"/></svg>